<?xml version="1.0" standalone="no"?>
<!DOCTYPE svg PUBLIC "-//W3C//DTD SVG 20010904//EN"
 "http://www.w3.org/TR/2001/REC-SVG-20010904/DTD/svg10.dtd">
<svg version="1.0" xmlns="http://www.w3.org/2000/svg"
 width="476.000000pt" height="189.000000pt" viewBox="0 0 476.000000 189.000000"
 preserveAspectRatio="xMidYMid meet">
<metadata>
Created by potrace 1.16, written by Peter Selinger 2001-2019
</metadata>
<g transform="translate(0.000000,189.000000) scale(0.100000,-0.100000)"
fill="#03dbfc" stroke="none">
<path d="M701 1578 c-431 -61 -722 -499 -615 -923 64 -249 254 -452 499 -531
110 -36 279 -44 391 -19 413 91 672 508 569 916 -9 35 -37 106 -62 158 -37 75
-62 110 -127 176 -179 182 -406 259 -655 223z m126 -464 c15 -11 36 -38 47
-59 l18 -40 44 42 c69 67 97 78 196 78 72 0 91 -3 115 -21 57 -41 63 -70 63
-279 0 -217 3 -229 70 -240 38 -6 40 -9 40 -41 l0 -34 -180 0 -180 0 0 34 c0
29 4 35 27 41 52 13 53 15 53 201 0 214 -9 243 -73 244 -51 0 -106 -42 -150
-113 -15 -23 -17 -50 -15 -174 l3 -147 33 -10 c28 -8 32 -13 32 -42 l0 -34
-165 0 -165 0 0 35 c0 27 4 35 18 35 10 0 28 7 40 16 21 15 22 20 22 195 0
214 -8 238 -73 239 -53 0 -111 -44 -156 -120 -18 -30 -21 -51 -21 -152 0 -138
7 -164 49 -173 27 -6 31 -11 31 -41 l0 -34 -175 0 -175 0 0 34 c0 31 3 34 38
41 20 4 43 11 50 17 17 15 17 413 0 424 -7 4 -28 10 -48 14 -32 5 -35 8 -38
43 l-3 37 135 0 136 0 0 -56 0 -55 49 42 c71 61 121 79 208 76 53 -2 79 -8
100 -23z"/>
<path d="M4293 1313 c-32 -4 -33 -6 -33 -51 0 -81 -41 -129 -118 -139 -40 -5
-42 -7 -42 -39 l0 -34 55 0 55 0 0 -215 c0 -249 6 -271 75 -305 49 -24 143
-27 183 -6 48 25 62 49 69 120 l6 66 -37 0 -36 0 0 -48 c0 -52 -12 -72 -45
-72 -43 0 -45 13 -45 243 l0 220 74 -7 73 -7 7 32 c12 60 12 59 -74 59 l-80 0
0 95 0 95 -27 -2 c-16 0 -43 -3 -60 -5z"/>
<path d="M3642 1149 c-108 -18 -187 -76 -231 -169 -23 -49 -26 -67 -26 -165 0
-98 3 -116 25 -159 53 -103 152 -156 296 -156 88 0 133 13 186 53 41 31 110
139 97 152 -4 3 -23 8 -42 12 -33 5 -37 3 -50 -29 -44 -105 -205 -142 -283
-64 -34 34 -64 115 -64 173 l0 33 230 0 230 0 0 43 c0 143 -90 255 -218 272
-26 3 -58 8 -72 10 -14 1 -49 -1 -78 -6z m154 -100 c32 -30 49 -63 58 -111 l7
-38 -156 0 -157 0 7 33 c12 53 48 108 85 128 48 26 121 21 156 -12z"/>
<path d="M2853 1110 c-34 -17 -75 -45 -92 -62 l-31 -32 0 57 0 57 -141 0 -140
0 3 -37 c3 -35 5 -38 42 -44 63 -10 66 -20 66 -224 0 -207 -4 -221 -71 -231
-36 -6 -39 -9 -39 -40 l0 -34 180 0 180 0 0 34 c0 29 -4 35 -27 41 -51 12 -53
18 -53 165 0 136 0 137 30 178 61 84 168 126 219 85 30 -25 40 -81 40 -245 1
-148 -6 -173 -48 -183 -27 -6 -31 -11 -31 -41 l0 -34 175 0 175 0 0 34 c0 32
-3 35 -39 41 -22 4 -44 12 -50 18 -5 7 -11 102 -13 212 -4 222 -9 243 -70 287
-27 19 -48 24 -118 26 -78 3 -90 1 -147 -28z"/>
<path d="M1610 1090 c0 -40 0 -40 38 -40 34 0 45 -8 130 -97 52 -54 98 -105
102 -114 7 -12 -15 -40 -98 -122 -90 -88 -116 -108 -155 -119 -44 -11 -47 -14
-47 -45 l0 -33 161 0 160 0 -3 33 c-3 30 -6 32 -50 37 -26 3 -50 9 -53 12 -11
11 11 40 78 106 l64 64 67 -78 c36 -43 66 -83 66 -91 0 -9 -15 -13 -50 -13
l-50 0 0 -35 0 -35 200 0 200 0 0 34 c0 31 -3 34 -37 41 -30 5 -54 24 -116 88
-44 45 -96 103 -117 128 l-39 45 93 93 c86 85 97 94 140 98 46 6 46 6 46 44
l0 39 -145 0 -145 0 0 -34 c0 -31 3 -34 40 -40 22 -3 40 -12 40 -19 0 -7 -26
-38 -58 -70 l-58 -58 -54 67 c-56 69 -56 83 -2 84 19 0 22 5 22 35 l0 35 -185
0 -185 0 0 -40z"/>
</g>
</svg>
